<?xml version="1.0" standalone="no"?><!DOCTYPE svg PUBLIC "-//W3C//DTD SVG 1.1//EN" "http://www.w3.org/Graphics/SVG/1.1/DTD/svg11.dtd"><svg class="icon" width="200px" height="200.00px" viewBox="0 0 1024 1024" version="1.1" xmlns="http://www.w3.org/2000/svg"><path fill="#8a8a8a" d="M996 112a427.264 427.264 0 0 1-134.016 50.016 210.176 210.176 0 0 0-301.984-4 202.016 202.016 0 0 0-62.016 148 197.248 197.248 0 0 0 6.016 48 581.312 581.312 0 0 1-240.992-64A579.2 579.2 0 0 1 72 134.016 196.032 196.032 0 0 0 41.984 240a196.992 196.992 0 0 0 94.016 174.016 181.728 181.728 0 0 1-94.016-25.984v3.968a203.936 203.936 0 0 0 47.008 132 207.744 207.744 0 0 0 120.992 74.016 266.592 266.592 0 0 1-56 6.016 203.52 203.52 0 0 1-40-4 220.512 220.512 0 0 0 75.008 104.992 192.448 192.448 0 0 0 120.992 40.992 408.192 408.192 0 0 1-260 90.016q-24 0-49.984-1.984A589.088 589.088 0 0 0 321.984 928a599.136 599.136 0 0 0 256-53.984 538.976 538.976 0 0 0 188.992-140.992 665.216 665.216 0 0 0 112.992-192 588.8 588.8 0 0 0 40-211.008V304A429.312 429.312 0 0 0 1024 194.016a424.8 424.8 0 0 1-120 34.016A208.416 208.416 0 0 0 996 112z"  /></svg>