<?xml version="1.0" standalone="no"?><!DOCTYPE svg PUBLIC "-//W3C//DTD SVG 1.1//EN" "http://www.w3.org/Graphics/SVG/1.1/DTD/svg11.dtd"><svg class="icon" width="200px" height="191.76px" viewBox="0 0 1068 1024" version="1.1" xmlns="http://www.w3.org/2000/svg"><path fill="#8a8a8a" d="M533.81632 81.5872c-116.7872 0-131.34336 0.52736-177.19808 2.62144a313.07776 313.07776 0 0 0-104.2432 20.06528 218.12224 218.12224 0 0 0-125.88032 125.88032 311.29088 311.29088 0 0 0-20.06016 104.21248c-2.05824 45.89056-2.62144 60.45184-2.62144 177.19808 0 116.78208 0.5632 131.6096 2.62144 177.46432a313.94816 313.94816 0 0 0 20.06016 104.2432 220.13952 220.13952 0 0 0 125.88032 125.88032 313.22112 313.22112 0 0 0 104.2432 19.80416c45.85472 2.09408 60.45184 2.62144 177.19808 2.62144 116.75136 0 131.6096-0.52736 177.4592-2.62144a314.44992 314.44992 0 0 0 104.24832-19.84 222.1056 222.1056 0 0 0 125.84448-125.84448 314.7008 314.7008 0 0 0 19.83488-104.2432c2.05312-45.85472 2.62144-60.70784 2.62144-177.42336 0-116.7872-0.5632-131.38432-2.62144-177.23392a311.82336 311.82336 0 0 0-19.83488-104.21248 220.1344 220.1344 0 0 0-125.84448-125.88032 313.856 313.856 0 0 0-104.28416-20.06528c-45.85472-2.09408-60.71296-2.62144-177.46432-2.62144h0.04096z m0 77.66528c114.91328 0 128.46592 0.26112 173.79328 2.32448a237.94688 237.94688 0 0 1 79.72352 14.85824 142.22848 142.22848 0 0 1 81.86368 81.60256 241.8944 241.8944 0 0 1 14.60224 79.95392c2.05312 45.3632 2.62144 58.91584 2.62144 173.568 0 114.69312-0.5632 128.4608-2.62144 173.83424a239.9232 239.9232 0 0 1-14.60224 79.72352 133.92896 133.92896 0 0 1-32.30208 49.52576 131.56352 131.56352 0 0 1-49.52576 32.3072 240.2304 240.2304 0 0 1-79.72864 14.59712c-45.3632 2.09408-58.91584 2.62144-173.82912 2.62144-114.91328 0-128.2048-0.52736-173.568-2.62144a242.048 242.048 0 0 1-79.98976-14.59712 130.73408 130.73408 0 0 1-49.25952-32.3072 133.81632 133.81632 0 0 1-32.3072-49.52576 245.11488 245.11488 0 0 1-14.85824-79.72352c-2.09408-45.36832-2.3552-58.91584-2.3552-173.83424 0-114.91328 0.26112-128.2048 2.3552-173.568a246.30784 246.30784 0 0 1 14.85824-79.98976 142.7968 142.7968 0 0 1 81.5616-81.5616 239.80032 239.80032 0 0 1 79.98976-14.85824c45.37344-2.06336 58.92608-2.3296 173.57824-2.3296z m0 131.57376c-121.96864 0.08192-220.77952 99.02592-220.6976 220.99456 0.08704 121.96864 99.02592 220.77952 220.99456 220.6976 121.95328-0.08704 220.75392-99.01056 220.69248-220.96384 0.04096-121.86624-98.71872-220.69248-220.58496-220.73344H533.77024h0.04608z m0 364.0576c-79.1552 0-143.32416-64.16896-143.32416-143.32928 0-79.1552 64.16896-143.32416 143.32416-143.32416s143.32416 64.16896 143.32416 143.32416c0 79.16032-64.16896 143.32928-143.32416 143.32928z m281.18016-372.62848c0 28.49792-23.10144 51.59936-51.59424 51.59936s-51.59424-23.10144-51.59424-51.59936 23.10144-51.59936 51.59424-51.59936 51.59424 23.10144 51.59424 51.59936z" /></svg>